<svg width="162" height="34" viewBox="0 0 162 34" fill="none" xmlns="http://www.w3.org/2000/svg">
<path d="M0.0520001 0.799998H4.732V9.44H4.876C5.38 8.864 6.028 8.408 6.82 8.072C7.612 7.736 8.488 7.568 9.448 7.568C11.608 7.568 13.252 8.312 14.38 9.8C15.532 11.264 16.108 13.508 16.108 16.532C16.108 19.772 15.304 22.232 13.696 23.912C12.112 25.592 9.928 26.432 7.144 26.432C5.608 26.432 4.204 26.3 2.932 26.036C1.66 25.796 0.7 25.52 0.0520001 25.208V0.799998ZM8.08 11.528C7.216 11.528 6.508 11.756 5.956 12.212C5.428 12.644 5.02 13.28 4.732 14.12V21.968C5.116 22.16 5.524 22.292 5.956 22.364C6.412 22.436 6.892 22.472 7.396 22.472C8.668 22.472 9.628 22.016 10.276 21.104C10.948 20.168 11.284 18.692 11.284 16.676C11.284 13.244 10.216 11.528 8.08 11.528ZM29.2888 12.392C28.5448 12.128 27.8728 11.996 27.2728 11.996C26.4328 11.996 25.7248 12.224 25.1488 12.68C24.5968 13.112 24.2248 13.676 24.0328 14.372V26H19.3528V8H22.9888L23.5288 10.376H23.6728C24.0808 9.488 24.6328 8.804 25.3288 8.324C26.0248 7.844 26.8408 7.604 27.7768 7.604C28.4008 7.604 29.1088 7.736 29.9008 8L29.2888 12.392ZM36.4739 8V18.224C36.4739 19.688 36.6419 20.744 36.9779 21.392C37.3379 22.04 38.0219 22.364 39.0299 22.364C39.9179 22.364 40.6499 22.1 41.2259 21.572C41.8259 21.044 42.2699 20.396 42.5579 19.628V8H47.2379V20.528C47.2379 21.512 47.2859 22.484 47.3819 23.444C47.4779 24.38 47.6219 25.232 47.8139 26H44.2859L43.4579 23.336H43.3139C42.7619 24.248 41.9939 25.004 41.0099 25.604C40.0259 26.204 38.8619 26.504 37.5179 26.504C36.6059 26.504 35.7899 26.384 35.0699 26.144C34.3499 25.904 33.7499 25.508 33.2699 24.956C32.7899 24.404 32.4179 23.66 32.1539 22.724C31.9139 21.788 31.7939 20.612 31.7939 19.196V8H36.4739ZM62.361 26V15.776C62.361 14.312 62.145 13.256 61.713 12.608C61.305 11.96 60.597 11.636 59.589 11.636C58.701 11.636 57.945 11.9 57.321 12.428C56.721 12.932 56.289 13.568 56.025 14.336V26H51.345V8H55.053L55.593 10.376H55.737C56.289 9.608 57.021 8.936 57.933 8.36C58.845 7.784 60.021 7.496 61.461 7.496C62.349 7.496 63.141 7.616 63.837 7.856C64.533 8.096 65.121 8.492 65.601 9.044C66.081 9.596 66.441 10.352 66.681 11.312C66.921 12.248 67.041 13.412 67.041 14.804V26H62.361ZM70.0982 17C70.0982 13.952 70.8422 11.612 72.3302 9.98C73.8182 8.324 75.9062 7.496 78.5942 7.496C80.0342 7.496 81.2822 7.724 82.3382 8.18C83.3942 8.636 84.2702 9.284 84.9662 10.124C85.6622 10.94 86.1782 11.936 86.5142 13.112C86.8742 14.288 87.0542 15.584 87.0542 17C87.0542 20.048 86.3102 22.4 84.8222 24.056C83.3582 25.688 81.2822 26.504 78.5942 26.504C77.1542 26.504 75.9062 26.276 74.8502 25.82C73.7942 25.364 72.9062 24.728 72.1862 23.912C71.4902 23.072 70.9622 22.064 70.6022 20.888C70.2662 19.712 70.0982 18.416 70.0982 17ZM74.9222 17C74.9222 17.792 74.9942 18.524 75.1382 19.196C75.2822 19.868 75.4982 20.456 75.7862 20.96C76.0742 21.464 76.4462 21.86 76.9022 22.148C77.3822 22.412 77.9462 22.544 78.5942 22.544C79.8182 22.544 80.7302 22.1 81.3302 21.212C81.9302 20.324 82.2302 18.92 82.2302 17C82.2302 15.344 81.9542 14.012 81.4022 13.004C80.8502 11.972 79.9142 11.456 78.5942 11.456C77.4422 11.456 76.5422 11.888 75.8942 12.752C75.2462 13.616 74.9222 15.032 74.9222 17ZM90.2981 8H93.7181L94.2581 10.16H94.4021C95.0261 9.248 95.7581 8.576 96.5981 8.144C97.4621 7.712 98.5061 7.496 99.7301 7.496C101.986 7.496 103.678 8.216 104.806 9.656C105.934 11.072 106.498 13.364 106.498 16.532C106.498 18.068 106.318 19.46 105.958 20.708C105.598 21.932 105.058 22.976 104.338 23.84C103.642 24.704 102.778 25.364 101.746 25.82C100.738 26.276 99.5741 26.504 98.2541 26.504C97.5101 26.504 96.8981 26.444 96.4181 26.324C95.9381 26.228 95.4581 26.06 94.9781 25.82V33.2H90.2981V8ZM98.3261 11.456C97.4141 11.456 96.6941 11.684 96.1661 12.14C95.6621 12.596 95.2661 13.28 94.9781 14.192V21.68C95.3141 21.944 95.6741 22.16 96.0581 22.328C96.4661 22.472 96.9941 22.544 97.6421 22.544C98.9861 22.544 99.9941 22.076 100.666 21.14C101.338 20.18 101.674 18.608 101.674 16.424C101.674 14.84 101.41 13.616 100.882 12.752C100.354 11.888 99.5021 11.456 98.3261 11.456ZM114.24 8V18.224C114.24 19.688 114.408 20.744 114.744 21.392C115.104 22.04 115.788 22.364 116.796 22.364C117.684 22.364 118.416 22.1 118.992 21.572C119.592 21.044 120.036 20.396 120.324 19.628V8H125.004V20.528C125.004 21.512 125.052 22.484 125.148 23.444C125.244 24.38 125.388 25.232 125.58 26H122.052L121.224 23.336H121.08C120.528 24.248 119.76 25.004 118.776 25.604C117.792 26.204 116.628 26.504 115.284 26.504C114.372 26.504 113.556 26.384 112.836 26.144C112.116 25.904 111.516 25.508 111.036 24.956C110.556 24.404 110.184 23.66 109.92 22.724C109.68 21.788 109.56 20.612 109.56 19.196V8H114.24ZM133.935 19.952C133.935 20.792 134.043 21.404 134.259 21.788C134.475 22.172 134.823 22.364 135.303 22.364C135.591 22.364 135.867 22.34 136.131 22.292C136.419 22.244 136.767 22.136 137.175 21.968L137.679 25.64C137.295 25.832 136.707 26.024 135.915 26.216C135.123 26.408 134.307 26.504 133.467 26.504C132.099 26.504 131.055 26.192 130.335 25.568C129.615 24.92 129.255 23.864 129.255 22.4V0.799998H133.935V19.952ZM140.089 8H144.769V26H140.089V8ZM139.405 2.924C139.405 2.228 139.657 1.64 140.161 1.16C140.689 0.655999 141.409 0.403999 142.321 0.403999C143.233 0.403999 143.965 0.655999 144.517 1.16C145.093 1.64 145.381 2.228 145.381 2.924C145.381 3.62 145.093 4.208 144.517 4.688C143.965 5.144 143.233 5.372 142.321 5.372C141.409 5.372 140.689 5.144 140.161 4.688C139.657 4.208 139.405 3.62 139.405 2.924ZM156.813 21.032C156.813 20.552 156.609 20.168 156.201 19.88C155.793 19.592 155.289 19.328 154.689 19.088C154.089 18.848 153.429 18.608 152.709 18.368C151.989 18.104 151.329 17.756 150.729 17.324C150.129 16.868 149.625 16.304 149.217 15.632C148.809 14.936 148.605 14.048 148.605 12.968C148.605 11.192 149.133 9.836 150.189 8.9C151.245 7.964 152.769 7.496 154.761 7.496C156.129 7.496 157.365 7.64 158.469 7.928C159.573 8.216 160.437 8.54 161.061 8.9L160.017 12.284C159.465 12.068 158.769 11.84 157.929 11.6C157.089 11.36 156.237 11.24 155.373 11.24C153.981 11.24 153.285 11.78 153.285 12.86C153.285 13.292 153.489 13.64 153.897 13.904C154.305 14.168 154.809 14.42 155.409 14.66C156.009 14.876 156.669 15.116 157.389 15.38C158.109 15.644 158.769 15.992 159.369 16.424C159.969 16.832 160.473 17.372 160.881 18.044C161.289 18.716 161.493 19.58 161.493 20.636C161.493 22.46 160.905 23.9 159.729 24.956C158.577 25.988 156.837 26.504 154.509 26.504C153.237 26.504 152.037 26.336 150.909 26C149.805 25.688 148.905 25.316 148.209 24.884L149.505 21.392C150.057 21.704 150.789 22.016 151.701 22.328C152.613 22.616 153.549 22.76 154.509 22.76C155.205 22.76 155.757 22.628 156.165 22.364C156.597 22.1 156.813 21.656 156.813 21.032Z" fill="white"/>
</svg>
